ModelForces
version=1
nRows=4
nColumns=206
inDegrees=no

This file contains the forces exerted on a model during a simulation.

A force is a generalized force, meaning that it can be either a force (N) or a torque (Nm).

Units are S.I. units (second, meters, Newtons, ...)
Angles are in degrees.

endheader
time	glut_med1_r	glut_med2_r	glut_med3_r	glut_min1_r	glut_min2_r	glut_min3_r	semimem_r	semiten_r	bifemlh_r	bifemsh_r	sar_r	add_long_r	add_brev_r	add_mag1_r	add_mag2_r	add_mag3_r	tfl_r	pect_r	grac_r	glut_max1_r	glut_max2_r	glut_max3_r	iliacus_r	psoas_r	quad_fem_r	gem_r	peri_r	rect_fem_r	vas_med_r	vas_int_r	vas_lat_r	med_gas_r	lat_gas_r	soleus_r	tib_post_r	flex_dig_r	flex_hal_r	tib_ant_r	per_brev_r	per_long_r	per_tert_r	ext_dig_r	ext_hal_r	glut_med1_l	glut_med2_l	glut_med3_l	glut_min1_l	glut_min2_l	glut_min3_l	semimem_l	semiten_l	bifemlh_l	bifemsh_l	sar_l	add_long_l	add_brev_l	add_mag1_l	add_mag2_l	add_mag3_l	tfl_l	pect_l	grac_l	glut_max1_l	glut_max2_l	glut_max3_l	iliacus_l	psoas_l	quad_fem_l	gem_l	peri_l	rect_fem_l	vas_med_l	vas_int_l	vas_lat_l	med_gas_l	lat_gas_l	soleus_l	tib_post_l	flex_dig_l	flex_hal_l	tib_ant_l	per_brev_l	per_long_l	per_tert_l	ext_dig_l	ext_hal_l	ercspn_r	ercspn_l	intobl_r	intobl_l	extobl_r	extobl_l	femur_lat_meniscii_l.femur_lat_l.force.X	femur_lat_meniscii_l.femur_lat_l.force.Y	femur_lat_meniscii_l.femur_lat_l.force.Z	femur_lat_meniscii_l.femur_lat_l.torque.X	femur_lat_meniscii_l.femur_lat_l.torque.Y	femur_lat_meniscii_l.femur_lat_l.torque.Z	femur_lat_meniscii_l.meniscus_lat_l.force.X	femur_lat_meniscii_l.meniscus_lat_l.force.Y	femur_lat_meniscii_l.meniscus_lat_l.force.Z	femur_lat_meniscii_l.meniscus_lat_l.torque.X	femur_lat_meniscii_l.meniscus_lat_l.torque.Y	femur_lat_meniscii_l.meniscus_lat_l.torque.Z	femur_med_meniscii_l.femur_med_l.force.X	femur_med_meniscii_l.femur_med_l.force.Y	femur_med_meniscii_l.femur_med_l.force.Z	femur_med_meniscii_l.femur_med_l.torque.X	femur_med_meniscii_l.femur_med_l.torque.Y	femur_med_meniscii_l.femur_med_l.torque.Z	femur_med_meniscii_l.meniscus_med_l.force.X	femur_med_meniscii_l.meniscus_med_l.force.Y	femur_med_meniscii_l.meniscus_med_l.force.Z	femur_med_meniscii_l.meniscus_med_l.torque.X	femur_med_meniscii_l.meniscus_med_l.torque.Y	femur_med_meniscii_l.meniscus_med_l.torque.Z	femur_lat_meniscii_r.femur_lat_r.force.X	femur_lat_meniscii_r.femur_lat_r.force.Y	femur_lat_meniscii_r.femur_lat_r.force.Z	femur_lat_meniscii_r.femur_lat_r.torque.X	femur_lat_meniscii_r.femur_lat_r.torque.Y	femur_lat_meniscii_r.femur_lat_r.torque.Z	femur_lat_meniscii_r.meniscus_lat_r.force.X	femur_lat_meniscii_r.meniscus_lat_r.force.Y	femur_lat_meniscii_r.meniscus_lat_r.force.Z	femur_lat_meniscii_r.meniscus_lat_r.torque.X	femur_lat_meniscii_r.meniscus_lat_r.torque.Y	femur_lat_meniscii_r.meniscus_lat_r.torque.Z	femur_med_meniscii_r.femur_med_r.force.X	femur_med_meniscii_r.femur_med_r.force.Y	femur_med_meniscii_r.femur_med_r.force.Z	femur_med_meniscii_r.femur_med_r.torque.X	femur_med_meniscii_r.femur_med_r.torque.Y	femur_med_meniscii_r.femur_med_r.torque.Z	femur_med_meniscii_r.meniscus_med_r.force.X	femur_med_meniscii_r.meniscus_med_r.force.Y	femur_med_meniscii_r.meniscus_med_r.force.Z	femur_med_meniscii_r.meniscus_med_r.torque.X	femur_med_meniscii_r.meniscus_med_r.torque.Y	femur_med_meniscii_r.meniscus_med_r.torque.Z	femur_med_tibia_l.tibia_upper_l.force.X	femur_med_tibia_l.tibia_upper_l.force.Y	femur_med_tibia_l.tibia_upper_l.force.Z	femur_med_tibia_l.tibia_upper_l.torque.X	femur_med_tibia_l.tibia_upper_l.torque.Y	femur_med_tibia_l.tibia_upper_l.torque.Z	femur_med_tibia_l.femur_med_l.force.X	femur_med_tibia_l.femur_med_l.force.Y	femur_med_tibia_l.femur_med_l.force.Z	femur_med_tibia_l.femur_med_l.torque.X	femur_med_tibia_l.femur_med_l.torque.Y	femur_med_tibia_l.femur_med_l.torque.Z	femur_lat_tibia_l.tibia_upper_l.force.X	femur_lat_tibia_l.tibia_upper_l.force.Y	femur_lat_tibia_l.tibia_upper_l.force.Z	femur_lat_tibia_l.tibia_upper_l.torque.X	femur_lat_tibia_l.tibia_upper_l.torque.Y	femur_lat_tibia_l.tibia_upper_l.torque.Z	femur_lat_tibia_l.femur_lat_l.force.X	femur_lat_tibia_l.femur_lat_l.force.Y	femur_lat_tibia_l.femur_lat_l.force.Z	femur_lat_tibia_l.femur_lat_l.torque.X	femur_lat_tibia_l.femur_lat_l.torque.Y	femur_lat_tibia_l.femur_lat_l.torque.Z	femur_med_tibia_r.tibia_upper_r.force.X	femur_med_tibia_r.tibia_upper_r.force.Y	femur_med_tibia_r.tibia_upper_r.force.Z	femur_med_tibia_r.tibia_upper_r.torque.X	femur_med_tibia_r.tibia_upper_r.torque.Y	femur_med_tibia_r.tibia_upper_r.torque.Z	femur_med_tibia_r.femur_med_r.force.X	femur_med_tibia_r.femur_med_r.force.Y	femur_med_tibia_r.femur_med_r.force.Z	femur_med_tibia_r.femur_med_r.torque.X	femur_med_tibia_r.femur_med_r.torque.Y	femur_med_tibia_r.femur_med_r.torque.Z	femur_lat_tibia_r.tibia_upper_r.force.X	femur_lat_tibia_r.tibia_upper_r.force.Y	femur_lat_tibia_r.tibia_upper_r.force.Z	femur_lat_tibia_r.tibia_upper_r.torque.X	femur_lat_tibia_r.tibia_upper_r.torque.Y	femur_lat_tibia_r.tibia_upper_r.torque.Z	femur_lat_tibia_r.femur_lat_r.force.X	femur_lat_tibia_r.femur_lat_r.force.Y	femur_lat_tibia_r.femur_lat_r.force.Z	femur_lat_tibia_r.femur_lat_r.torque.X	femur_lat_tibia_r.femur_lat_r.torque.Y	femur_lat_tibia_r.femur_lat_r.torque.Z	aACL_R	pACL_R	aPCL_R	pPCL_R	aMCL_R	mMCL_R	pMCL_R	aLCL_R	mLCL_R	pLCL_R	aPCL_L	pPCL_L	aMCL_L	aLCL_L	ground_prescribedForce_0_fx	ground_prescribedForce_0_fy	ground_prescribedForce_0_fz
      0.47648143	      7.61385464	      5.71115657	      6.11392186	      2.67933556	      3.20101240	      3.22056189	      8.59684469	      4.03302702	      8.81373589	      7.50162073	      2.10763271	      5.65879039	      5.97775346	      2.94214274	      2.47370791	      4.02344341	      4.49250909	      2.25599897	      1.54840676	      3.68534787	      5.60062628	      4.18133970	     22.72992805	     13.05942844	      3.65510627	      2.86762382	      4.14320678	     11.11082025	      6.72882723	      7.21915377	      9.80607177	      4.48173352	      2.36981267	      8.30284493	     10.86207318	      2.50117296	      2.21749325	     15.76806578	      3.78442617	      7.35578148	     10.58856313	      8.30200370	      2.14175832	      7.61385464	      5.71115657	      6.11392186	      2.67933556	      3.20101240	      3.22056189	      8.84128271	      4.11854394	      7.76278664	      7.27262662	      1.53134957	      5.65879039	      4.17249825	      2.94214274	      2.47370791	      4.02344341	      4.11927560	      2.25599897	      1.57081336	      3.68534787	      5.60062628	      4.18133970	     22.72992805	     13.05942844	      3.65510627	      2.86762382	      4.14320678	     10.77595056	      6.64672412	      7.62552669	      8.19915451	     14.19318277	      6.59041009	     31.49004125	     42.51712124	      2.78451220	      2.95591524	      8.53364600	      4.38312443	     12.56573553	      2.02024606	      5.33144593	      1.69334527	     25.19888339	     25.19888339	      9.07554630	      9.07554630	     26.87246855	     26.87246855	      2.76307435	     50.99597937	     -9.56042239	      5.21997485	     -0.02578839	      1.48581788	     -2.76307435	    -50.99597937	      9.56042239	     -1.74637766	      0.02558040	     -0.48301696	     -3.31599387	     20.97615968	     -3.40468921	      0.94473225	     -0.02138609	     -1.00501789	      3.31599387	    -20.97615968	      3.40468921	      0.28075727	      0.00368718	     -0.29758878	     25.52898116	     62.72746932	     14.50099744	     -7.57711440	      0.60306408	     10.71755293	    -25.52898116	    -62.72746932	    -14.50099744	      2.21858973	     -0.72461884	     -0.75806578	     63.41569298	     94.52808257	     -1.81162273	      2.63114251	     -1.25374390	     26.64749605	    -63.41569298	    -94.52808257	      1.81162273	     -1.56165976	      1.00863975	     -1.99955812	      0.00000000	      0.00000000	      0.00000000	      0.00000000	      0.00000000	      0.00000000	      0.00000000	      0.00000000	      0.00000000	      0.00000000	      0.00000000	      0.00000000	      0.00000000	      0.00000000	      0.00000000	      0.00000000	      0.00000000	      0.00000000	      0.00000000	      0.00000000	      0.00000000	      0.00000000	      0.00000000	      0.00000000	      0.00000000	      0.00000000	      0.00000000	      0.00000000	      0.00000000	      0.00000000	      0.00000000	      0.00000000	      0.00000000	      0.00000000	      0.00000000	      0.00000000	      0.00000000	      0.00000000	      0.00000000	      0.00000000	      0.00000000	      0.00000000	      0.00000000	      0.00000000	      0.00000000	      0.00000000	      0.00000000	      0.00000000	      8.58478047	     37.48425564	      0.00000000	      0.00000000	     11.55411605	      9.62257197	     14.53022513	      0.00000000	      1.94901696	      2.49666009	      0.00000000	      0.00000000	      0.00000001	      0.00000000	    110.00000000	      0.00000000	      0.00000000
      0.47793670	      7.61258523	      5.71028225	      6.11297427	      2.67894278	      3.20058748	      3.22002604	      8.59511658	      4.03305524	      8.80139961	      7.49964987	      1.66909809	      5.65791399	      4.55518202	      2.94169562	      2.47332302	      4.02275002	      4.49211467	      2.25566615	      1.54892089	      3.68478412	      5.59976695	      4.18068638	     22.72834254	     13.05764506	      3.65455879	      2.86736746	      4.14219192	     11.09954653	      6.72807532	      7.20945467	      9.78850314	      4.48866803	      2.37310459	      8.31138287	     10.83118118	      2.52129446	      2.20501466	     15.77865533	      3.80332089	      7.38916098	     10.60559198	      8.25397075	      2.14809213	      7.61258523	      5.71028225	      6.11297427	      2.67894278	      3.20058748	      3.22002604	      8.83943499	      4.11786385	      7.76124870	      7.27153662	      1.53112611	      5.65791399	      4.17192341	      2.94169562	      2.47332302	      4.02275002	      4.11884671	      2.25566615	      1.57058016	      3.68478412	      5.59976695	      4.18068638	     22.72834254	     13.05764506	      3.65455879	      2.86736746	      4.14219192	     10.77385724	      6.64568329	      7.62430952	      8.19785239	     14.18873010	      6.58833947	     31.48234467	     42.51410153	      2.78315495	      2.95491723	      8.53207051	      4.38218147	     12.56348147	      2.01996943	      5.33064601	      1.69311453	     25.19518092	     25.19518092	      9.07409417	      9.07409417	     26.87116415	     26.87116415	      2.76307435	     50.99597937	     -9.56042239	      5.21997485	     -0.02578839	      1.48581788	     -2.76307435	    -50.99597937	      9.56042239	     -1.74637766	      0.02558040	     -0.48301696	     -3.31599387	     20.97615968	     -3.40468921	      0.94473225	     -0.02138609	     -1.00501789	      3.31599387	    -20.97615968	      3.40468921	      0.28075727	      0.00368718	     -0.29758878	     25.56699649	     62.63545643	     14.53981087	     -7.59078961	      0.60355444	     10.73410117	    -25.56699649	    -62.63545643	    -14.53981087	      2.21636065	     -0.72508964	     -0.76007741	     63.38295207	     94.58524572	     -1.77671642	      2.61791434	     -1.25329026	     26.63359947	    -63.38295207	    -94.58524572	      1.77671642	     -1.56251922	      1.00881210	     -1.99824883	      0.00000000	      0.00000000	      0.00000000	      0.00000000	      0.00000000	      0.00000000	      0.00000000	      0.00000000	      0.00000000	      0.00000000	      0.00000000	      0.00000000	      0.00000000	      0.00000000	      0.00000000	      0.00000000	      0.00000000	      0.00000000	      0.00000000	      0.00000000	      0.00000000	      0.00000000	      0.00000000	      0.00000000	      0.00000000	      0.00000000	      0.00000000	      0.00000000	      0.00000000	      0.00000000	      0.00000000	      0.00000000	      0.00000000	      0.00000000	      0.00000000	      0.00000000	      0.00000000	      0.00000000	      0.00000000	      0.00000000	      0.00000000	      0.00000000	      0.00000000	      0.00000000	      0.00000000	      0.00000000	      0.00000000	      0.00000000	      8.56663408	     37.51644909	      0.00000000	      0.00000000	     11.46627196	      9.53945984	     14.44319350	      0.00000000	      1.87968667	      2.42474772	      0.00000000	      0.00000000	      0.00000001	      0.00000000	    110.00000000	      0.00000000	      0.00000000
      0.48286447	      7.60845947	      5.70744053	      6.10989441	      2.67766616	      3.19920642	      3.21828446	      8.59887835	      4.03789271	      8.76968876	      7.52057685	      0.00000000	      5.65506550	      0.00000000	      2.94024239	      2.47207206	      4.02049643	      4.49243662	      2.25458440	      1.55688076	      3.68295185	      5.59697396	      4.17856297	     22.72318936	     13.05184889	      3.65277935	      2.86653426	      4.13889173	     11.07431420	      6.75301377	      7.20582786	      9.76577883	      4.52759247	      2.39193888	      8.35842469	     10.73994088	      2.58179800	      2.15777609	     15.80923886	      3.86144964	      7.49882675	     10.65820427	      8.13120906	      2.17678997	      7.60845947	      5.70744053	      6.10989441	      2.67766616	      3.19920642	      3.21828446	      8.83342911	      4.11565344	      7.75624997	      7.26799388	      1.53039980	      5.65506550	      4.16999770	      2.94024239	      2.47207206	      4.02049643	      4.11745278	      2.25458440	      1.56982220	      3.68295185	      5.59697396	      4.17856297	     22.72318936	     13.05184889	      3.65277935	      2.86653426	      4.13889173	     10.76705344	      6.64230041	      7.62035357	      8.19362034	     14.17422712	      6.58159508	     31.45731705	     42.50428434	      2.77862937	      2.95161102	      8.52694991	      4.37911624	     12.55614783	      2.01907036	      5.32812123	      1.69238778	     25.18314705	     25.18314705	      9.06937448	      9.06937448	     26.86692466	     26.86692466	      2.76307435	     50.99597937	     -9.56042239	      5.21997485	     -0.02578839	      1.48581788	     -2.76307435	    -50.99597937	      9.56042239	     -1.74637766	      0.02558040	     -0.48301696	     -3.31599387	     20.97615968	     -3.40468921	      0.94473225	     -0.02138609	     -1.00501789	      3.31599387	    -20.97615968	      3.40468921	      0.28075727	      0.00368718	     -0.29758878	     25.12824087	     62.50648730	     14.57671750	     -7.60092832	      0.59343067	     10.54977296	    -25.12824087	    -62.50648730	    -14.57671750	      2.20990370	     -0.71256230	     -0.74554476	     62.96335759	     94.30141284	     -1.74183698	      2.59886724	     -1.24591161	     26.45676473	    -62.96335759	    -94.30141284	      1.74183698	     -1.56079936	      1.00484685	     -1.98404303	      0.00000000	      0.00000000	      0.00000000	      0.00000000	      0.00000000	      0.00000000	      0.00000000	      0.00000000	      0.00000000	      0.00000000	      0.00000000	      0.00000000	      0.00000000	      0.00000000	      0.00000000	      0.00000000	      0.00000000	      0.00000000	      0.00000000	      0.00000000	      0.00000000	      0.00000000	      0.00000000	      0.00000000	      0.00000000	      0.00000000	      0.00000000	      0.00000000	      0.00000000	      0.00000000	      0.00000000	      0.00000000	      0.00000000	      0.00000000	      0.00000000	      0.00000000	      0.00000000	      0.00000000	      0.00000000	      0.00000000	      0.00000000	      0.00000000	      0.00000000	      0.00000000	      0.00000000	      0.00000000	      0.00000000	      0.00000000	      8.44709820	     37.57071401	      0.00000000	      0.00000000	     11.01393654	      9.10164789	     13.99443388	      0.00000000	      1.43328819	      1.97789348	      0.00000000	      0.00000000	      0.00000001	      0.00000000	    110.00000000	      0.00000000	      0.00000000
      0.48585665	      7.60607922	      5.70580104	      6.10811754	      2.67692960	      3.19840963	      3.21727970	      8.59448173	      4.03557508	      8.74724065	      7.49748644	      0.00000000	      5.65342211	      0.00000000	      2.93940397	      2.47135034	      4.01919629	      4.49091338	      2.25396029	      1.54890714	      3.68189475	      5.59536259	      4.17733791	     22.72021635	     13.04850502	      3.65175272	      2.86605358	      4.13698654	     11.05387645	      6.73621319	      7.18570057	      9.73307507	      4.54491243	      2.40138871	      8.38237269	     10.69675683	      2.61219462	      2.12546867	     15.83016259	      3.89077522	      7.56062148	     10.68989823	      8.09310470	      2.19930108	      7.60607922	      5.70580104	      6.10811754	      2.67692960	      3.19840963	      3.21727970	      8.82996382	      4.11437821	      7.75336595	      7.26594993	      1.52998074	      5.65342211	      4.16882987	      2.93940397	      2.47135034	      4.01919629	      4.11664861	      2.25396029	      1.56938490	      3.68189475	      5.59536259	      4.17733791	     22.72021635	     13.04850502	      3.65175272	      2.86605358	      4.13698654	     10.76312804	      6.64034874	      7.61807129	      8.19117878	     14.16583777	      6.57769369	     31.44286916	     42.49861868	      2.77593172	      2.94965629	      8.52399570	      4.37734753	     12.55191145	      2.01855167	      5.32672106	      1.69198583	     25.17620407	     25.17620407	      9.06665156	      9.06665156	     26.86447879	     26.86447879	      2.76307435	     50.99597937	     -9.56042239	      5.21997485	     -0.02578839	      1.48581788	     -2.76307435	    -50.99597937	      9.56042239	     -1.74637766	      0.02558040	     -0.48301696	     -3.31599387	     20.97615968	     -3.40468921	      0.94473225	     -0.02138609	     -1.00501789	      3.31599387	    -20.97615968	      3.40468921	      0.28075727	      0.00368718	     -0.29758878	     24.85259602	     62.57668942	     14.59151067	     -7.60817626	      0.58517990	     10.43334493	    -24.85259602	    -62.57668942	    -14.59151067	      2.21060064	     -0.70281714	     -0.73557485	     63.15856608	     94.09013197	     -1.86793434	      2.64899617	     -1.25068984	     26.53994098	    -63.15856608	    -94.09013197	      1.86793434	     -1.56467971	      1.01017318	     -1.99216774	      0.00000000	      0.00000000	      0.00000000	      0.00000000	      0.00000000	      0.00000000	      0.00000000	      0.00000000	      0.00000000	      0.00000000	      0.00000000	      0.00000000	      0.00000000	      0.00000000	      0.00000000	      0.00000000	      0.00000000	      0.00000000	      0.00000000	      0.00000000	      0.00000000	      0.00000000	      0.00000000	      0.00000000	      0.00000000	      0.00000000	      0.00000000	      0.00000000	      0.00000000	      0.00000000	      0.00000000	      0.00000000	      0.00000000	      0.00000000	      0.00000000	      0.00000000	      0.00000000	      0.00000000	      0.00000000	      0.00000000	      0.00000000	      0.00000000	      0.00000000	      0.00000000	      0.00000000	      0.00000000	      0.00000000	      0.00000000	      8.79697498	     38.01868023	      0.00000000	      0.00000000	     11.49505623	      9.59255457	     14.47246787	      0.00000000	      1.90928481	      2.47020405	      0.00000000	      0.00000000	      0.00000001	      0.00000000	    110.00000000	      0.00000000	      0.00000000
